<svg width="30" height="42" viewBox="0 0 30 42" fill="none" xmlns="http://www.w3.org/2000/svg">
<path fill-rule="evenodd" clip-rule="evenodd" d="M8.09575 0.298838C8.35618 0.104051 8.67287 -0.000825168 8.99809 9.83719e-06H20.998C21.3233 -0.000825038 21.6399 0.104051 21.9004 0.298838L27.9004 4.79884C28.2304 5.04886 28.4425 5.42419 28.4863 5.83595L29.9863 19.3359C30.0038 19.4883 29.9979 19.6424 29.9687 19.793L26.9687 34.793C26.9109 35.0837 26.7681 35.3508 26.5586 35.5606L20.5586 41.5606C20.2773 41.8419 19.8958 41.9999 19.498 42H10.4981C10.1003 41.9999 9.71881 41.8419 9.43754 41.5606L3.43756 35.5606C3.228 35.3508 3.08527 35.0837 3.02741 34.793L0.0274173 19.793C-0.00176747 19.6424 -0.00769573 19.4883 0.00983919 19.3359L1.50983 5.83595C1.55364 5.42419 1.76569 5.04886 2.09577 4.79884L8.09575 0.298838ZM17.5762 3.00001H12.4199L14.6699 12H15.3262L17.5762 3.00001ZM9.35551 3.10548L12.045 13.8633C12.2115 14.5305 12.8104 14.9989 13.4981 15H16.4981C17.1857 14.9989 17.7846 14.5305 17.9512 13.8633L20.6406 3.10548L25.5801 6.8086L26.9804 19.4356L26.5351 21.668L26.5117 21.6504L18.707 33H11.2891L3.48444 21.6504L3.461 21.668L3.01569 19.4356L4.41607 6.8086L9.35551 3.10548ZM8.57621 34.3535L4.94341 29.0684L5.88091 33.7617L7.55669 35.4375L8.57621 34.3535ZM25.0527 29.0684L24.1152 33.7617L22.498 35.3789L21.4434 34.3242L25.0527 29.0684ZM18.877 36H11.1485L9.67777 37.5586L11.1192 39H18.877L20.377 37.5L18.877 36Z" fill="#666666"/>
<path fill-rule="evenodd" clip-rule="evenodd" d="M4.97265 18.0762L4.02344 20.9238L13.0234 23.9238L13.9726 21.0762L4.97265 18.0762Z" fill="#FFD800"/>
<path fill-rule="evenodd" clip-rule="evenodd" d="M25.0234 18.0762L16.0234 21.0762L16.9727 23.9238L25.9726 20.9238L25.0234 18.0762Z" fill="#FFD800"/>
</svg>
